<svg id="Capa_1" enable-background="new 0 0 512 512" height="512" viewBox="0 0 512 512" width="512" xmlns="http://www.w3.org/2000/svg"><g><path d="m270 195c0-41.355-33.645-75-75-75s-75 33.645-75 75 33.645 75 75 75 75-33.645 75-75zm-120 0c0-24.813 20.187-45 45-45s45 20.187 45 45-20.187 45-45 45-45-20.187-45-45z"/><path d="m467 152c-24.813 0-45 20.187-45 45 0 19.555 12.541 36.228 30 42.42v97.58c0 46.869-38.131 85-85 85h-77v-56.761c59.612-33.398 100-97.186 100-170.239 0-107.523-87.477-195-195-195s-195 87.477-195 195c0 73.053 40.388 136.841 100 170.239v58.27c-34.192 6.969-60 37.271-60 73.491 0 8.284 6.716 15 15 15h280c8.284 0 15-6.716 15-15 0-16.871-5.603-32.456-15.041-45h32.041c63.411 0 115-51.589 115-115v-97.58c17.459-6.192 30-22.865 30-42.42 0-24.813-20.187-45-45-45zm-437 43c0-90.981 74.019-165 165-165s165 74.019 165 165-74.019 165-165 165-165-74.019-165-165zm230 183.846v43.154h-50v-32.571c17.401-1.33 34.165-4.967 50-10.583zm-80 10.583v32.571h-50v-43.154c15.835 5.616 32.599 9.253 50 10.583zm-107.43 92.571c6.19-17.461 22.873-30 42.43-30h160c19.557 0 36.239 12.539 42.43 30zm394.43-270c-8.271 0-15-6.729-15-15s6.729-15 15-15 15 6.729 15 15-6.729 15-15 15z"/></g></svg>